<?xml version="1.0" standalone="no"?>
<!DOCTYPE svg PUBLIC "-//W3C//DTD SVG 20010904//EN"
 "http://www.w3.org/TR/2001/REC-SVG-20010904/DTD/svg10.dtd">
<svg version="1.0" xmlns="http://www.w3.org/2000/svg"
 width="1032.000000pt" height="1032.000000pt" viewBox="0 0 1032.000000 1032.000000"
 preserveAspectRatio="xMidYMid meet">
<metadata>
Created by potrace 1.14, written by Peter Selinger 2001-2017
</metadata>
<g transform="translate(0.000000,1032.000000) scale(0.100000,-0.100000)"
fill="#000000" stroke="none">
<path d="M3899 9637 c-2 -3 -47 -7 -99 -11 -52 -3 -117 -9 -145 -13 -27 -3
-62 -6 -77 -7 -16 0 -28 -5 -28 -9 0 -5 -4 -6 -9 -3 -7 5 -126 -13 -201 -30
-14 -3 -36 -7 -50 -10 -14 -2 -70 -16 -125 -30 -55 -13 -111 -27 -124 -30 -13
-3 -32 -9 -43 -15 -10 -5 -18 -8 -18 -5 0 3 -57 -16 -127 -40 -71 -25 -132
-46 -138 -48 -16 -5 -44 -16 -129 -52 -44 -19 -85 -34 -92 -34 -7 0 -20 -7
-28 -16 -9 -8 -16 -13 -16 -10 0 2 -51 -22 -112 -53 -177 -91 -222 -115 -234
-127 -7 -6 -26 -17 -43 -24 -17 -7 -31 -16 -31 -21 0 -5 -5 -9 -12 -9 -6 0
-26 -11 -44 -25 -18 -14 -37 -25 -43 -25 -5 0 -15 -8 -20 -17 -6 -10 -11 -15
-11 -10 0 6 -97 -60 -175 -120 -16 -13 -34 -27 -40 -31 -33 -24 -102 -78 -111
-87 -6 -5 -30 -26 -54 -45 -129 -104 -371 -349 -486 -490 -35 -43 -75 -88 -92
-106 -6 -7 -12 -15 -12 -18 0 -3 -28 -43 -63 -88 -67 -88 -167 -233 -167 -243
0 -3 -9 -15 -20 -27 -11 -12 -20 -28 -20 -35 0 -7 -4 -13 -10 -13 -5 0 -10 -4
-10 -9 0 -5 -21 -45 -47 -88 -41 -70 -200 -378 -194 -378 1 0 -12 -31 -29 -68
-36 -80 -72 -174 -70 -183 1 -4 -2 -10 -7 -13 -13 -8 -128 -366 -147 -456 -2
-5 -8 -28 -14 -50 -6 -22 -13 -53 -16 -70 -2 -16 -5 -30 -6 -30 -3 0 -11 -41
-11 -57 0 -10 -5 -18 -10 -18 -6 0 -8 -4 -5 -9 3 -4 -5 -69 -19 -144 -13 -74
-24 -143 -24 -153 0 -11 -2 -32 -5 -49 -21 -116 -30 -295 -30 -575 0 -279 4
-359 30 -572 10 -92 13 -115 18 -143 3 -16 8 -47 12 -69 3 -21 8 -48 10 -60 3
-11 8 -34 10 -50 6 -31 23 -106 49 -221 9 -38 17 -75 19 -82 1 -7 5 -16 9 -19
4 -4 7 -15 7 -24 0 -48 130 -418 217 -620 27 -62 146 -305 152 -310 3 -3 16
-25 29 -50 13 -25 34 -63 47 -85 13 -22 28 -47 32 -55 10 -20 105 -172 115
-185 5 -5 35 -48 67 -95 33 -47 64 -89 68 -95 5 -5 20 -26 33 -45 14 -19 33
-42 43 -51 9 -9 17 -21 17 -27 0 -6 3 -12 8 -14 4 -1 45 -48 92 -103 46 -55
94 -109 105 -121 128 -134 174 -180 260 -259 121 -113 233 -207 343 -288 45
-34 82 -65 82 -69 0 -5 6 -8 14 -8 7 0 25 -11 39 -24 15 -14 35 -27 45 -30 11
-4 27 -15 37 -26 10 -11 22 -20 27 -20 4 0 30 -15 56 -33 86 -60 183 -117 198
-117 8 0 14 -5 14 -10 0 -6 18 -17 40 -26 22 -9 40 -21 40 -27 0 -6 3 -8 6 -5
3 4 31 -8 62 -26 63 -35 156 -80 247 -121 33 -15 74 -33 90 -40 151 -68 590
-219 606 -209 5 3 9 1 9 -5 0 -5 8 -10 18 -10 9 1 44 -7 77 -16 58 -16 70 -19
116 -30 11 -2 28 -6 37 -9 9 -3 31 -8 47 -11 17 -2 41 -7 55 -10 14 -3 41 -8
60 -11 19 -4 44 -8 55 -11 48 -10 131 -23 183 -29 31 -3 66 -8 77 -10 37 -8
130 -17 320 -31 121 -10 617 -9 730 0 181 15 284 26 384 42 20 3 52 8 71 10
19 3 46 7 60 10 14 3 41 8 60 11 19 3 43 7 53 10 20 6 75 15 97 16 8 0 21 5
28 11 6 5 12 7 12 4 0 -2 60 11 133 29 72 19 140 37 151 39 10 2 44 12 75 21
31 10 65 19 75 21 11 2 25 8 33 14 7 6 13 9 13 6 0 -4 36 7 80 22 44 16 80 27
80 24 0 -3 7 1 16 8 9 7 23 14 31 15 8 2 38 12 67 23 28 11 65 26 81 32 17 7
32 13 35 13 16 3 149 62 170 76 13 8 25 14 27 12 2 -1 46 18 98 43 52 25 98
46 102 46 5 0 13 4 18 9 6 4 55 31 110 61 55 29 117 63 137 76 21 13 42 23 48
23 5 0 10 4 10 9 0 5 10 13 23 17 12 4 66 36 120 70 54 35 102 64 107 64 6 0
10 5 10 10 0 6 7 10 15 10 8 0 15 4 15 8 0 4 15 16 33 27 27 16 169 116 202
142 6 5 39 31 75 58 196 152 394 328 565 505 154 158 175 181 175 186 0 3 10
15 23 27 87 83 477 595 477 626 0 4 9 18 20 31 16 19 50 73 125 198 82 137
262 491 257 505 -1 4 2 7 8 7 5 0 10 7 10 15 0 9 14 46 32 83 17 37 31 73 31
80 0 6 5 12 10 12 6 0 7 3 4 6 -3 4 -1 16 5 28 7 11 13 23 13 26 0 5 16 46 35
95 11 29 44 119 45 125 1 3 14 46 30 95 16 50 30 95 31 100 2 6 15 51 29 100
14 50 27 99 30 110 16 69 25 108 40 175 10 41 19 82 20 90 2 8 4 17 5 20 1 3
2 8 1 13 -1 4 3 27 9 52 6 25 13 62 16 83 3 20 7 48 10 62 2 14 7 48 9 75 3
28 7 57 10 65 4 14 7 51 21 205 2 28 6 62 8 76 l3 26 -629 0 c-346 0 -630 -3
-632 -6 -6 -9 -19 -112 -20 -153 0 -21 -3 -38 -6 -38 -3 0 -6 -8 -6 -17 -1
-10 -4 -33 -7 -50 -4 -18 -9 -48 -12 -65 -5 -28 -25 -124 -41 -193 -3 -11 -7
-29 -9 -40 -3 -11 -18 -67 -35 -125 -29 -101 -34 -119 -45 -157 -6 -24 -59
-171 -74 -208 -7 -16 -14 -34 -15 -40 -1 -5 -12 -32 -24 -59 -12 -27 -22 -50
-22 -53 0 -16 -133 -287 -144 -295 -6 -4 -7 -8 -3 -8 7 0 -5 -24 -62 -120 -11
-19 -25 -44 -31 -55 -26 -53 -185 -300 -212 -329 -10 -11 -18 -26 -18 -33 0
-8 -4 -11 -10 -8 -5 3 -10 1 -10 -5 0 -13 -41 -69 -82 -115 -16 -16 -28 -36
-28 -43 0 -7 -4 -11 -9 -7 -5 3 -12 -3 -15 -12 -4 -10 -27 -40 -51 -68 -246
-274 -386 -410 -596 -577 -36 -29 -81 -65 -100 -80 -19 -15 -39 -28 -45 -28
-7 0 -14 -7 -18 -15 -3 -8 -10 -15 -16 -15 -6 0 -18 -7 -27 -15 -17 -17 -188
-130 -243 -161 -19 -10 -37 -21 -40 -24 -5 -5 -11 -9 -105 -61 -144 -82 -504
-247 -575 -264 -3 -1 -12 -5 -20 -8 -8 -4 -64 -23 -125 -42 -60 -20 -117 -38
-125 -42 -8 -3 -22 -7 -30 -8 -8 -1 -42 -10 -75 -19 -33 -9 -69 -19 -80 -21
-11 -3 -30 -7 -42 -10 -61 -13 -149 -31 -198 -40 -16 -3 -43 -8 -60 -11 -16
-4 -46 -8 -65 -9 -19 -2 -35 -4 -35 -5 0 -3 -109 -15 -255 -27 -116 -10 -526
-9 -630 0 -165 16 -284 31 -390 52 -43 8 -214 45 -235 51 -11 3 -31 7 -45 10
-24 5 -70 18 -115 34 -11 3 -85 28 -165 55 -80 26 -170 59 -200 73 -93 41
-345 164 -350 170 -3 4 -31 21 -62 37 -32 17 -58 34 -58 38 0 5 -4 6 -8 3 -5
-3 -18 4 -30 14 -12 11 -25 20 -30 20 -4 0 -17 8 -28 17 -10 10 -31 24 -46 32
-15 8 -36 21 -45 30 -10 9 -29 23 -43 32 -129 83 -406 334 -554 504 -59 67
-189 233 -231 295 -16 25 -33 47 -37 48 -5 2 -8 8 -8 13 0 6 -18 37 -40 69
-22 32 -40 64 -40 69 0 6 -5 11 -11 11 -5 0 -8 4 -4 9 3 5 1 12 -4 16 -11 6
-13 11 -100 182 -33 67 -61 124 -61 127 0 4 -8 25 -19 49 -10 23 -28 67 -40
97 -11 30 -26 69 -32 85 -7 17 -13 32 -14 35 -9 36 -37 129 -42 140 -7 19 -10
29 -17 58 -3 13 -8 32 -11 42 -6 18 -11 40 -21 90 -3 13 -12 56 -20 95 -17 76
-30 159 -39 245 -4 30 -9 73 -12 95 -9 69 -12 543 -3 575 5 19 5 30 -1 30 -6
0 -7 5 -4 11 7 10 14 60 20 129 1 19 4 35 5 35 1 0 3 18 6 40 3 34 11 73 40
219 9 46 47 188 71 266 15 47 27 87 28 90 1 6 40 106 56 145 6 17 13 35 14 40
2 6 15 37 31 70 15 33 27 63 26 68 -1 4 3 7 9 7 5 0 7 5 4 10 -3 6 -1 10 4 10
6 0 10 3 9 8 -2 8 23 64 32 72 4 3 16 26 29 52 12 26 47 86 77 134 30 47 54
90 54 95 0 5 4 9 8 9 5 0 17 16 28 35 10 19 22 35 26 35 5 0 8 6 8 14 0 8 3
16 8 18 4 2 40 46 81 98 41 52 86 108 100 123 46 50 242 247 246 247 2 0 15
10 28 23 13 12 43 38 66 56 24 19 49 41 57 48 7 7 17 13 22 13 6 0 12 4 14 9
5 14 258 181 273 181 7 0 15 4 17 9 2 7 199 112 218 117 8 1 55 21 103 43 23
10 78 31 122 46 44 15 87 30 95 33 22 8 32 10 64 17 16 3 33 8 38 11 4 3 17 7
28 10 11 2 30 6 43 9 92 22 132 30 207 40 25 3 52 8 60 11 50 18 477 25 625
11 98 -9 152 -16 185 -23 14 -3 38 -7 53 -8 15 -2 49 -9 75 -16 80 -20 126
-31 142 -34 8 -2 22 -6 30 -9 8 -3 35 -12 60 -18 63 -17 74 -22 128 -45 18 -8
37 -14 43 -14 5 0 40 -14 77 -31 37 -18 68 -31 70 -30 2 2 125 -63 207 -109
35 -20 105 -65 122 -80 7 -5 15 -10 19 -10 3 0 19 -10 34 -22 15 -13 40 -32
54 -42 15 -11 36 -27 46 -35 10 -9 39 -34 65 -56 82 -69 235 -232 291 -310 16
-23 35 -47 42 -55 22 -26 62 -91 62 -100 0 -6 4 -10 8 -10 17 0 151 -286 190
-405 22 -66 43 -133 46 -150 2 -16 8 -41 11 -55 4 -14 8 -37 11 -53 2 -15 6
-39 9 -55 13 -65 17 -127 18 -292 1 -152 -2 -214 -18 -330 -9 -71 -62 -279
-85 -335 -4 -11 -18 -47 -31 -80 -64 -171 -200 -395 -316 -521 -24 -25 -43
-50 -43 -55 0 -5 -3 -9 -7 -9 -5 0 -33 -24 -64 -53 -94 -88 -128 -117 -139
-117 -5 0 -10 -4 -10 -8 0 -4 -15 -16 -32 -27 -18 -10 -42 -27 -52 -37 -10 -9
-23 -15 -28 -12 -4 3 -8 1 -8 -3 0 -9 -136 -86 -156 -89 -7 -1 -35 -13 -63
-28 -28 -14 -51 -23 -51 -20 0 2 -9 0 -21 -6 -11 -6 -28 -13 -37 -16 -9 -2
-57 -14 -107 -28 -49 -13 -117 -27 -150 -31 -33 -4 -76 -9 -95 -12 -19 -2 -42
-4 -50 -3 -15 0 -43 -1 -71 -3 -14 -1 -15 -66 -16 -629 l0 -628 26 -1 c85 -3
283 10 381 26 29 4 113 18 120 20 9 2 95 19 105 21 6 1 12 3 15 4 10 3 36 9
68 15 37 7 278 85 332 107 67 28 75 31 83 30 4 -1 7 3 7 10 0 6 3 8 6 5 4 -3
16 0 28 8 11 8 28 15 38 15 10 0 18 3 18 8 0 8 73 42 90 42 6 0 10 4 10 9 0 5
9 13 21 16 41 13 258 149 344 215 17 14 47 36 65 50 18 14 38 30 44 35 6 6 36
31 66 56 58 50 201 189 261 255 29 32 65 77 188 230 20 24 167 251 178 274 7
14 17 32 22 40 18 27 66 115 66 120 1 3 18 41 39 85 42 86 118 272 131 320 10
37 10 36 19 57 4 9 9 25 11 35 2 10 4 18 5 18 1 0 3 7 5 15 2 8 15 58 29 110
23 84 33 133 51 233 3 15 7 39 10 55 3 15 8 47 11 72 3 25 7 56 9 70 26 168
26 607 0 780 -2 14 -6 48 -10 75 -3 28 -9 64 -12 80 -4 17 -7 35 -8 40 -1 6
-3 12 -4 15 -2 3 -4 16 -6 30 -8 72 -61 279 -97 380 -10 30 -21 60 -22 65 -3
11 -9 25 -43 115 -34 88 -46 115 -117 260 -61 125 -209 372 -227 378 -5 2 -9
9 -9 16 0 7 -8 22 -17 34 -10 11 -27 33 -38 48 -11 15 -25 32 -31 38 -6 6 -15
18 -20 27 -38 65 -267 308 -414 439 -144 128 -447 350 -479 350 -6 0 -11 4
-11 8 0 5 -12 15 -27 23 -16 7 -46 24 -68 38 -73 44 -309 159 -424 206 -132
53 -341 127 -341 119 0 -2 -8 0 -19 5 -27 15 -221 66 -296 78 -16 2 -37 7 -45
10 -23 9 -42 12 -87 15 -24 2 -43 6 -43 9 0 4 -10 7 -22 7 -26 1 -103 10 -103
12 0 3 -36 7 -115 15 -41 4 -84 9 -95 12 -25 6 -570 15 -576 10z"/>
</g>
</svg>
